# xmcd
#
# Track frame offsets:
#	150
#	40930
#	55492
#	71660
#	106720
#	133562
#	143650
#	212307
#	217412
#	254067
#	272187
#
# Disc length: 3975 seconds
#
# Revision: 14
# Processed by: cddbd v1.5.2PL0 Copyright (c) Steve Scherf et al.
# Submitted via: EZCDAudioConverter 2.1.7.1
#
DISCID=b00f850b
DTITLE=V/A - Stay Awake
DYEAR=1988
DGENRE=
TTITLE0=I'm Getting Wet And I Don't Care At All
TTITLE1=Bonnie Raitt and Was (Not Was) - Baby Mine
TTITLE2=Tom Waits - Heigh Ho (The Dwarfs Marching Song)
TTITLE3=The Darkness Sheds Its Veil
TTITLE4=Three Inches Is Such A Wretched Height
TTITLE5=Aaron Neville - Mickey Mouse March
TTITLE6=All Innocent Children Had Better Beware
TTITLE7=Sinéad O'Connor - Someday My Prince Will Come
TTITLE8=Technicolor Pachyderms
TTITLE9=James Taylor - Second Star To The Right
TTITLE10=Do You See The Noses Growing?
EXTD=
EXTT0=
EXTT1=
EXTT2=
EXTT3=
EXTT4=
EXTT5=
EXTT6=
EXTT7=
EXTT8=
EXTT9=
EXTT10=
PLAYORDER=
